<?xml version="1.0" encoding="UTF-8"?><svg xmlns="http://www.w3.org/2000/svg" viewBox="0 0 50 50"><path d="M25.14 2c-.76 0-1.47.3-2 .84l-5.85 5.93a.969.969 0 0 0-.29.7v20.69c0 .4.25.77.62.92a1 1 0 0 0 .38.08c.26 0 .52-.11.71-.3l17.35-17.58a1 1 0 0 0 0-1.4l-8.93-9.04C26.6 2.3 25.89 2 25.14 2zM11.122 15.813a1 1 0 0 0-.8.257L2.9 22.96C2.32 23.5 2 24.22 2 25c0 .77.32 1.49.9 2.03l7.42 6.9c.19.17.43.27.68.27.14 0 .27-.03.4-.09.36-.16.6-.52.6-.91V16.8c0-.4-.24-.76-.6-.91a.982.982 0 0 0-.279-.078zm29.473.962c-.261 0-.523.096-.713.286l-8.592 8.68a.996.996 0 0 0 0 1.41l7.16 7.23c.19.19.451.299.711.299.27 0 .52-.11.71-.3l7.31-7.37a2.871 2.871 0 0 0 0-4.02l-5.88-5.93a.985.985 0 0 0-.706-.285zm-13.768 13.86a.985.985 0 0 0-.707.285l-8.83 8.91a.984.984 0 0 0 0 1.4l5.88 5.94c.54.53 1.25.83 2 .83.76 0 1.47-.3 2-.83l7.542-7.6a.996.996 0 0 0 0-1.41l-7.172-7.24a1.007 1.007 0 0 0-.713-.285z"/><metadata><rdf:RDF xmlns:rdf="http://www.w3.org/1999/02/22-rdf-syntax-ns#" xmlns:rdfs="http://www.w3.org/2000/01/rdf-schema#" xmlns:dc="http://purl.org/dc/elements/1.1/"><rdf:Description about="https://iconscout.com/legal#licenses" dc:title="kodi,filled" dc:description="kodi,filled" dc:publisher="Iconscout" dc:date="2017-12-09" dc:format="image/svg+xml" dc:language="en"><dc:creator><rdf:Bag><rdf:li>Icons8</rdf:li></rdf:Bag></dc:creator></rdf:Description></rdf:RDF></metadata></svg>